<svg xmlns="http://www.w3.org/2000/svg" xmlns:xlink="http://www.w3.org/1999/xlink" width="128" zoomAndPan="magnify" viewBox="0 0 96 95.999999" height="128" preserveAspectRatio="xMidYMid meet" version="1.0"><defs><clipPath id="e208a551bc"><path d="M 58.054688 4.054688 L 96 4.054688 L 96 91.945312 L 58.054688 91.945312 Z M 58.054688 4.054688 " clip-rule="nonzero"/></clipPath><clipPath id="e9bc8c59ec"><path d="M 102 4.054688 C 77.730469 4.054688 58.054688 23.730469 58.054688 48 C 58.054688 72.269531 77.730469 91.945312 102 91.945312 C 126.269531 91.945312 145.945312 72.269531 145.945312 48 C 145.945312 23.730469 126.269531 4.054688 102 4.054688 Z M 102 4.054688 " clip-rule="nonzero"/></clipPath><clipPath id="91a1701fc3"><path d="M 58.054688 4.054688 L 96 4.054688 L 96 91.804688 L 58.054688 91.804688 Z M 58.054688 4.054688 " clip-rule="nonzero"/></clipPath><clipPath id="434e99c99f"><path d="M 101.996094 4.054688 C 77.726562 4.054688 58.054688 23.726562 58.054688 47.996094 C 58.054688 72.261719 77.726562 91.933594 101.996094 91.933594 C 126.261719 91.933594 145.933594 72.261719 145.933594 47.996094 C 145.933594 23.726562 126.261719 4.054688 101.996094 4.054688 Z M 101.996094 4.054688 " clip-rule="nonzero"/></clipPath><clipPath id="e3a5e2b71d"><path d="M 0 4.054688 L 37.945312 4.054688 L 37.945312 91.945312 L 0 91.945312 Z M 0 4.054688 " clip-rule="nonzero"/></clipPath><clipPath id="20307bc74f"><path d="M -6 4.054688 C -30.269531 4.054688 -49.945312 23.730469 -49.945312 48 C -49.945312 72.269531 -30.269531 91.945312 -6 91.945312 C 18.269531 91.945312 37.945312 72.269531 37.945312 48 C 37.945312 23.730469 18.269531 4.054688 -6 4.054688 Z M -6 4.054688 " clip-rule="nonzero"/></clipPath><clipPath id="d42dfd9f78"><path d="M 0 4.054688 L 37.804688 4.054688 L 37.804688 91.804688 L 0 91.804688 Z M 0 4.054688 " clip-rule="nonzero"/></clipPath><clipPath id="1ddead6e14"><path d="M -6.003906 4.054688 C -30.273438 4.054688 -49.945312 23.726562 -49.945312 47.996094 C -49.945312 72.261719 -30.273438 91.933594 -6.003906 91.933594 C 18.261719 91.933594 37.933594 72.261719 37.933594 47.996094 C 37.933594 23.726562 18.261719 4.054688 -6.003906 4.054688 Z M -6.003906 4.054688 " clip-rule="nonzero"/></clipPath></defs><rect x="-9.6" width="115.2" fill="#ffffff" y="-9.6" height="115.199999" fill-opacity="1"/><rect x="-9.6" width="115.2" fill="#99f6e4" y="-9.6" height="115.199999" fill-opacity="1"/><g clip-path="url(#e208a551bc)"><g clip-path="url(#e9bc8c59ec)"><path fill="#0d9488" d="M 58.054688 4.054688 L 145.945312 4.054688 L 145.945312 91.945312 L 58.054688 91.945312 Z M 58.054688 4.054688 " fill-opacity="1" fill-rule="nonzero"/></g></g><g clip-path="url(#91a1701fc3)"><g clip-path="url(#434e99c99f)"><path stroke-linecap="butt" transform="matrix(0.75, 0, 0, 0.75, 58.055693, 4.055698)" fill="none" stroke-linejoin="miter" d="M 58.587204 -0.00134695 C 26.227828 -0.00134695 -0.00134024 26.227821 -0.00134024 58.587198 C -0.00134024 90.941366 26.227828 117.170534 58.587204 117.170534 C 90.941373 117.170534 117.170541 90.941366 117.170541 58.587198 C 117.170541 26.227821 90.941373 -0.00134695 58.587204 -0.00134695 Z M 58.587204 -0.00134695 " stroke="#0f766e" stroke-width="20" stroke-opacity="1" stroke-miterlimit="4"/></g></g><g clip-path="url(#e3a5e2b71d)"><g clip-path="url(#20307bc74f)"><path fill="#0d9488" d="M -49.945312 4.054688 L 37.945312 4.054688 L 37.945312 91.945312 L -49.945312 91.945312 Z M -49.945312 4.054688 " fill-opacity="1" fill-rule="nonzero"/></g></g><g clip-path="url(#d42dfd9f78)"><g clip-path="url(#1ddead6e14)"><path stroke-linecap="butt" transform="matrix(0.75, 0, 0, 0.75, -49.944302, 4.055698)" fill="none" stroke-linejoin="miter" d="M 58.587197 -0.00134695 C 26.22782 -0.00134695 -0.00134774 26.227821 -0.00134774 58.587198 C -0.00134774 90.941366 26.22782 117.170534 58.587197 117.170534 C 90.941365 117.170534 117.170533 90.941366 117.170533 58.587198 C 117.170533 26.227821 90.941365 -0.00134695 58.587197 -0.00134695 Z M 58.587197 -0.00134695 " stroke="#0f766e" stroke-width="20" stroke-opacity="1" stroke-miterlimit="4"/></g></g></svg>